<?xml version="1.0" encoding="iso-8859-1"?>
<!-- Generator: Adobe Illustrator 19.0.0, SVG Export Plug-In . SVG Version: 6.00 Build 0)  -->
<svg version="1.1" id="Capa_1" xmlns="http://www.w3.org/2000/svg" xmlns:xlink="http://www.w3.org/1999/xlink" x="0px" y="0px"
	 viewBox="0 0 368 368" style="enable-background:new 0 0 368 368;" xml:space="preserve">
<path style="fill:#CCE4FF;" d="M360,56v256c0,26.48-21.52,48-48,48H56c-26.48,0-48-21.52-48-48V56C8,29.52,29.52,8,56,8h256
	C338.48,8,360,29.52,360,56z M312,64c0-4.4-3.6-8-8-8s-8,3.6-8,8s3.6,8,8,8S312,68.4,312,64z M296,184c0-61.84-50.16-112-112-112
	S72,122.16,72,184s50.16,112,112,112S296,245.84,296,184z"/>
<g>
	<path style="fill:#007AFF;" d="M312,0H56C25.12,0,0,25.12,0,56v256c0,30.88,25.12,56,56,56h256c30.872,0,56-25.12,56-56V56
		C368,25.12,342.872,0,312,0z M352,312c0,22.056-17.944,40-40,40H56c-22.056,0-40-17.944-40-40V56c0-22.056,17.944-40,40-40h256
		c22.056,0,40,17.944,40,40V312z"/>
	<path style="fill:#007AFF;" d="M184,64c-66.168,0-120,53.832-120,120s53.832,120,120,120s120-53.832,120-120S250.168,64,184,64z
		 M184,288c-57.344,0-104-46.656-104-104S126.656,80,184,80s104,46.656,104,104S241.344,288,184,288z"/>
	<path style="fill:#007AFF;" d="M183.6,111.6c-39.88,0-72.32,32.48-72.32,72.4s32.44,72.4,72.32,72.4c39.92,0,72.4-32.48,72.4-72.4
		S223.52,111.6,183.6,111.6z M183.6,240.4c-31.056,0-56.32-25.304-56.32-56.4s25.264-56.4,56.32-56.4
		c31.104,0,56.4,25.304,56.4,56.4S214.704,240.4,183.6,240.4z"/>
	<path style="fill:#007AFF;" d="M304,48c-8.824,0-16,7.176-16,16s7.176,16,16,16s16-7.176,16-16S312.824,48,304,48z M296,64
		l7.992-0.024C304,63.984,304,63.992,304,64H296z"/>
</g>
<g>
</g>
<g>
</g>
<g>
</g>
<g>
</g>
<g>
</g>
<g>
</g>
<g>
</g>
<g>
</g>
<g>
</g>
<g>
</g>
<g>
</g>
<g>
</g>
<g>
</g>
<g>
</g>
<g>
</g>
</svg>
